<svg width="141" height="141" viewBox="0 0 141 141" fill="none" xmlns="http://www.w3.org/2000/svg">
<g clip-path="url(#clip0_93_182)">
<path d="M30.7635 56.2122C31.7014 56.2122 32.4518 57.025 32.4518 57.9629C32.4518 58.9009 31.6389 59.6512 30.701 59.6512H30.3883C27.6996 59.6512 25.136 60.5891 23.1351 62.3399C21.1967 64.0907 19.8837 66.7168 19.7586 70.0934V70.406C19.7586 73.2823 20.0087 75.5333 20.6965 77.7218C21.3843 79.9102 22.5724 82.0987 24.3231 84.975C24.4482 85.1626 24.5107 85.3502 24.5732 85.5378C24.7608 86.2881 26.8243 93.979 21.1342 96.3551C20.1963 96.7302 19.0708 97.1054 17.8828 97.5431C12.818 99.2314 5.25212 101.795 4.7519 106.172V106.234C3.93903 112.737 3.93903 115.364 3.93903 115.364C3.93903 116.301 3.1887 117.114 2.18825 117.114C1.25033 117.114 0.437469 116.364 0.437469 115.364C0.437469 115.364 0.437469 112.55 1.25033 105.859V105.797C2.0632 99.2939 10.8171 96.3551 16.6947 94.3542C17.9453 93.9165 19.0083 93.5413 19.7586 93.2287C22.3848 92.1657 21.5094 87.8513 21.2593 86.7258C19.446 83.787 18.1954 81.3484 17.3825 78.9098C16.5697 76.3461 16.257 73.7825 16.257 70.5936V70.2184C16.3821 65.7789 18.1329 62.2774 20.759 59.9638C23.3852 57.6503 26.8243 56.3997 30.3258 56.3997H30.6385L30.7635 56.2122Z" fill="#BAC1D2"/>
<path d="M21.3843 86.7258C20.8216 85.9755 20.9466 84.85 21.7595 84.2872C22.5098 83.7245 23.6353 83.8495 24.1981 84.6624C25.0109 85.7879 25.8863 86.6633 26.7617 87.3511C28.0748 88.289 29.3879 88.7892 30.701 88.7892C32.0141 88.7892 33.3897 88.289 34.6402 87.3511C35.5156 86.6633 36.391 85.7879 37.2039 84.6624C37.7666 83.9121 38.8296 83.7245 39.6425 84.2872C40.3928 84.85 40.5804 85.9129 40.0176 86.7258C38.9547 88.1014 37.8917 89.2269 36.7037 90.1023C34.7653 91.5405 32.7644 92.2283 30.701 92.2283C28.6376 92.2283 26.5741 91.5405 24.6983 90.1023C23.5103 89.2269 22.4473 88.1014 21.3843 86.7258Z" fill="#BAC1D2"/>
<path fill-rule="evenodd" clip-rule="evenodd" d="M25.8238 117.052L30.2633 123.68L34.7653 117.052L32.0141 96.9805H28.6375L25.8238 117.052Z" fill="#F6C3BF"/>
<path d="M30.7635 59.6512C29.8256 59.6512 29.0127 58.9009 29.0127 57.9629C29.0127 57.025 29.7631 56.2122 30.701 56.2122H31.0136C34.5152 56.2122 37.9542 57.4002 40.5804 59.7762C43.2066 62.1523 44.9573 65.5913 45.0824 70.0308V70.406C45.0824 73.6574 44.7698 76.1586 43.9569 78.7222C43.144 81.1608 41.956 83.5994 40.0802 86.5382C39.8301 87.6637 38.8921 91.9781 41.5808 93.0411C42.3312 93.3537 43.3941 93.7289 44.6447 94.1666C50.5223 96.1675 59.3388 99.1688 60.0891 105.609V105.672C60.902 112.362 60.902 115.176 60.902 115.176C60.902 116.114 60.1516 116.927 59.1512 116.927C58.2133 116.927 57.4004 116.176 57.4004 115.176C57.4004 115.176 57.4004 112.55 56.5875 106.047V105.984C56.0873 101.67 48.5214 99.1063 43.4567 97.3555C42.2061 96.9178 41.1431 96.5427 40.2052 96.1675C34.5152 93.854 36.5161 86.163 36.7662 85.3502C36.8287 85.1626 36.8912 84.975 37.0163 84.7874C38.7671 81.9737 39.9551 79.7227 40.6429 77.5342C41.3307 75.3457 41.5808 73.1572 41.5808 70.2184V69.9058C41.5183 66.4667 40.2052 63.9031 38.2043 62.1523C36.266 60.4015 33.6398 59.4636 30.9511 59.4636H30.6385L30.7635 59.6512Z" fill="#BAC1D2"/>
<path fill-rule="evenodd" clip-rule="evenodd" d="M96.2928 50.4596C114.488 56.2122 114.176 85.4127 99.7318 97.4181C99.7318 97.4181 97.7309 110.424 110.487 112.487C123.242 114.488 136.936 119.615 138.749 131.371C138.061 96.4176 100.107 120.616 107.985 92.4784C118.803 79.7852 120.366 50.8973 96.2928 50.4596Z" fill="#C3D4E0"/>
<path d="M96.2928 48.7714C97.2307 48.7714 98.0435 49.5843 97.981 50.5222C97.981 51.4601 97.1682 52.273 96.2302 52.2104H95.73C91.5406 52.2104 87.4138 53.6486 84.2874 56.3998C81.2235 59.151 79.0976 63.2779 78.9725 68.6553V69.218C78.9725 73.6575 79.4102 77.0965 80.4732 80.4105C81.5362 83.787 83.287 87.1635 86.0382 91.478C86.1632 91.6655 86.2258 91.8531 86.2883 92.0407C86.6009 93.1662 89.4772 103.984 81.5987 107.235C80.2231 107.798 78.5974 108.36 76.7215 108.986C68.9681 111.612 57.2753 115.551 56.4 122.617C55.2119 132.434 55.2119 136.498 55.2119 136.498C55.2119 137.436 54.4616 138.249 53.4611 138.249C52.5232 138.249 51.7104 137.499 51.7104 136.498C51.7104 136.498 51.7104 132.309 52.9609 122.242C54.0864 113.05 66.9672 108.673 75.596 105.734C77.4719 105.109 79.0976 104.546 80.2231 104.046C85.0377 102.108 83.287 94.6044 82.9118 93.1037C80.1606 88.6642 78.2847 85.1001 77.1592 81.4735C75.9712 77.7218 75.5335 73.9701 75.5335 69.218V68.5927C75.7211 62.1524 78.2222 57.2127 81.9739 53.8362C85.7255 50.4596 90.6652 48.7089 95.73 48.7089H96.2302L96.2928 48.7714ZM86.2883 92.1032C86.4134 92.791 86.1632 93.5414 85.538 93.9165L86.2883 92.1032Z" fill="#BAC1D2"/>
<path d="M82.9743 93.1662C82.4116 92.4159 82.5366 91.2904 83.3495 90.7276C84.0998 90.1649 85.2253 90.29 85.7881 91.1028C87.1012 92.8536 88.4768 94.2292 89.8524 95.2922C91.9783 96.8554 94.1668 97.6057 96.2928 97.6057C98.4812 97.6057 100.67 96.8554 102.733 95.2922C104.109 94.2292 105.484 92.8536 106.797 91.1028C107.36 90.3525 108.423 90.1649 109.236 90.7276C109.986 91.2904 110.174 92.3534 109.611 93.1662C108.111 95.1671 106.485 96.7929 104.797 98.0434C102.108 100.044 99.1691 101.045 96.2928 101.045C93.354 101.045 90.4777 100.044 87.789 98.0434C86.1007 96.7929 84.475 95.1671 82.9743 93.1662Z" fill="#BAC1D2"/>
<path d="M96.2928 52.2104C95.3548 52.2104 94.542 51.4601 94.542 50.5222C94.542 49.5842 95.2923 48.7714 96.2302 48.7714H96.7304C101.733 48.7714 106.672 50.5222 110.487 53.8987C114.238 57.2752 116.802 62.2149 116.927 68.6553V69.2805C116.927 74.0327 116.489 77.7843 115.301 81.536C114.113 85.1626 112.3 88.7267 109.549 93.1662C109.174 94.6669 107.485 102.108 112.237 104.109C113.425 104.609 115.051 105.172 116.864 105.797C125.493 108.736 138.374 113.113 139.5 122.304C139.687 124.055 139.875 125.743 140.062 127.369C140.25 128.995 140.375 130.245 140.437 131.246C140.5 132.184 139.812 133.059 138.874 133.122C137.936 133.184 137.061 132.496 136.998 131.558C136.873 130.37 136.811 129.057 136.623 127.744C136.498 126.431 136.311 124.743 136.061 122.742C135.185 115.739 123.555 111.737 115.739 109.111C113.863 108.486 112.237 107.923 110.862 107.36C102.983 104.171 105.86 93.2913 106.172 92.1658C106.235 91.9782 106.297 91.7906 106.422 91.603C109.111 87.2886 110.862 83.9121 111.987 80.5356C113.05 77.2216 113.488 73.7826 113.488 69.3431V68.7803C113.363 63.4029 111.237 59.2761 108.173 56.5248C105.047 53.7736 100.92 52.3355 96.7304 52.3355H96.2302L96.2928 52.2104ZM41.2682 41.268L38.8921 45.8326L49.2092 38.9545C49.5219 38.7669 49.8345 38.6419 50.1471 38.6419H68.843C69.6559 38.6419 70.4062 38.4543 71.0315 38.0791C67.0922 36.8286 63.6532 34.8902 61.0895 32.4516C57.9006 29.3877 56.0248 25.6361 56.0248 21.5092C56.0248 20.0711 56.2749 18.6329 56.7126 17.2573C56.8376 16.8196 57.0252 16.4445 57.1503 16.0693H40.8305C39.6425 16.0693 38.5795 16.5695 37.7666 17.3198C37.0163 18.0702 36.5161 19.1332 36.5161 20.3212V34.3274C36.5161 35.3904 36.8912 36.3283 37.5165 37.0787C38.1418 37.829 39.0797 38.3918 40.0802 38.5793C41.0181 38.7044 41.6434 39.6423 41.5183 40.5802C41.4558 40.8303 41.3932 41.0179 41.2682 41.2055V41.268ZM32.7019 50.2095L37.3289 41.3306C36.391 40.8303 35.5781 40.2051 34.8903 39.3922C33.7648 38.0166 33.077 36.2658 33.077 34.39V20.3837C33.077 18.2578 33.9524 16.3194 35.328 14.9438L35.3906 14.8813C36.8287 13.5056 38.7671 12.6302 40.893 12.6302H60.2141C60.5893 12.6302 60.9019 12.7553 61.2146 12.9429C61.9649 13.5056 62.215 14.5686 61.6523 15.3815C60.9645 16.3819 60.4643 17.3824 60.0891 18.4453C59.7764 19.4458 59.5889 20.5088 59.5889 21.5717C59.5889 24.6981 61.0895 27.5744 63.5906 29.9505C66.2794 32.5141 70.1561 34.4525 74.7206 35.4529C74.8457 35.5155 75.0333 35.5155 75.1583 35.6405C76.0337 36.0782 76.3463 37.1412 75.9086 37.9541C75.2208 39.2046 74.2204 40.2676 73.0324 41.0179C71.8443 41.7057 70.4687 42.1434 69.0306 42.1434H50.835L35.328 52.4605C34.8278 52.7732 34.14 52.8357 33.5772 52.5231C32.7019 52.0854 32.3892 51.0224 32.8269 50.2095H32.7019Z" fill="#BAC1D2"/>
<path d="M81.4736 3.4386C88.4142 3.4386 94.667 5.37696 99.2316 8.56589C103.984 11.8799 106.923 16.4444 106.923 21.5717C106.923 23.8852 106.297 26.0737 105.234 28.0746C104.296 29.8254 103.046 31.3886 101.42 32.8267L104.546 42.9562C104.797 43.8942 104.296 44.8321 103.421 45.1447C102.796 45.3323 102.17 45.1447 101.733 44.7696L93.6041 37.5163C91.9158 38.1416 90.1025 38.7043 88.2267 39.0795C86.0382 39.5172 83.7246 39.7673 81.3486 39.7673C74.408 39.7673 68.1552 37.829 63.5907 34.64C58.8385 31.326 55.8997 26.7615 55.8997 21.6342C55.8997 16.5069 58.8385 11.8799 63.5907 8.62842C68.1552 5.43949 74.4705 3.50113 81.3486 3.50113L81.4736 3.4386ZM97.2932 11.3796C93.2914 8.62842 87.6639 6.87763 81.4736 6.87763C75.2834 6.87763 69.6559 8.56589 65.6541 11.3796C61.8399 14.0058 59.4638 17.6324 59.4638 21.5717C59.4638 25.511 61.8399 29.075 65.6541 31.7637C69.6559 34.515 75.2834 36.2658 81.4736 36.2658C83.6621 36.2658 85.7255 36.0782 87.7264 35.6405C89.7273 35.2653 91.6032 34.64 93.2914 33.9522C93.9167 33.6396 94.667 33.7021 95.2298 34.2023L99.4817 38.0165L97.856 32.8892C97.6058 32.2014 97.7934 31.4511 98.4187 30.9509C100.044 29.6378 101.358 28.1371 102.233 26.5114C103.046 25.0107 103.483 23.3225 103.483 21.6342C103.483 17.695 101.107 14.1309 97.2932 11.4422V11.3796Z" fill="#BAC1D2"/>
<path fill-rule="evenodd" clip-rule="evenodd" d="M42.0811 18.0702H53.5862C50.835 25.6361 55.3995 32.7017 61.5272 36.2658H42.0811C40.5804 36.2658 39.3298 34.9527 39.3298 33.3895V21.009C39.3298 19.3833 40.5804 18.1327 42.0811 18.1327V18.0702Z" fill="#F6C3BF"/>
<path d="M81.036 10.0666C91.0404 10.0666 99.1691 15.3189 99.1691 21.7593C99.1691 24.6356 97.5433 27.3243 94.7921 29.3252L95.7925 31.5136L92.8537 30.7633L90.6653 31.6387C87.8515 32.7642 84.6 33.3895 81.036 33.3895C71.0315 33.3895 62.9029 28.1371 62.9029 21.6967C62.9029 15.2564 71.0315 10.004 81.036 10.004V10.0666Z" fill="#BAC1D2"/>
</g>
<defs>
<clipPath id="clip0_93_182">
<rect width="140" height="140" fill="white" transform="translate(0.5 0.84375)"/>
</clipPath>
</defs>
</svg>
