<svg width="141" height="141" viewBox="0 0 141 141" fill="none" xmlns="http://www.w3.org/2000/svg">
<g clip-path="url(#clip0_92_76)">
<path fill-rule="evenodd" clip-rule="evenodd" d="M49.5347 14.2941C70.662 20.8776 63.8703 55.7619 53.538 68.223C53.538 68.223 52.5314 78.3586 62.9215 80.7999C73.3116 83.2412 96.7529 89.7784 96.6951 109.286C96.6951 109.286 97.5397 96.304 93.7099 88.9685C89.8802 81.6445 66.5777 75.9751 66.5777 75.9751C66.5777 75.9751 61.2554 74.6792 61.3711 68.6859C61.4868 62.6925 62.6091 60.7255 62.6091 60.7255C62.6091 60.7255 71.4951 50.0809 69.7711 31.3718C69.0537 23.5387 60.7116 12.8363 49.5463 14.271L49.5347 14.2941Z" fill="#99A3BC"/>
<path d="M49.5578 12.5817C50.5182 12.5933 51.2818 13.3801 51.2702 14.3288C51.2587 15.2892 50.4719 16.0528 49.5231 16.0412L49.0025 16.0297V16.0412C44.3165 16.0412 39.7 17.6495 36.2405 20.7503C32.7926 23.8396 30.4554 28.4445 30.3049 34.4495V34.4611L30.2934 35.0627H30.3049C30.3049 39.9801 30.7678 43.7867 31.9479 47.5007C33.1397 51.2379 35.095 54.9983 38.0917 59.7883C38.1959 59.9619 38.2653 60.1355 38.3116 60.3206C38.6587 61.5355 41.7826 73.4297 33.2438 76.9355C31.7628 77.5487 29.9347 78.1619 27.8752 78.8561C19.2322 81.7834 6.27355 86.1801 5.31322 94.0594C3.98264 104.959 3.98264 118.253 3.98264 118.288C3.98264 119.248 3.20743 120.023 2.2471 120.023C1.28677 120.023 0.511566 119.248 0.511566 118.288C0.511566 118.253 0.511566 104.773 1.86528 93.6545C3.09173 83.5999 17.3 78.7751 26.7645 75.5702C28.8124 74.8759 30.6289 74.2627 31.9248 73.7305C37.4438 71.4627 35.419 62.9355 35.014 61.4198C31.9479 56.5024 29.9231 52.5685 28.6388 48.5421C27.3314 44.4231 26.8223 40.3156 26.8223 35.0627H26.8339V35.0396L26.8454 34.3801V34.3569C27.019 27.2991 29.8074 21.8495 33.938 18.1586C38.057 14.4677 43.5066 12.5586 49.0025 12.5586V12.5702H49.0256L49.5694 12.5817H49.5578Z" fill="#21376D"/>
<path d="M34.9793 61.4082C34.4124 60.6445 34.5744 59.5569 35.338 58.99C36.1016 58.423 37.1892 58.585 37.7562 59.3487C39.2025 61.2925 40.7297 62.8429 42.2917 64.0115C44.6405 65.7586 47.0934 66.6263 49.5347 66.6263C51.9645 66.6263 54.4289 65.747 56.7777 64.0115C58.3512 62.8429 59.8669 61.2925 61.3132 59.3487C61.8802 58.585 62.9678 58.423 63.7314 58.99C64.495 59.5569 64.657 60.6445 64.0901 61.4082C62.4355 63.6296 60.6768 65.423 58.8372 66.7883C55.8636 68.9982 52.7049 70.0974 49.5347 70.0974C46.3645 70.0974 43.2058 68.9867 40.2322 66.7883C38.3926 65.423 36.6223 63.6296 34.9793 61.4082Z" fill="#21376D"/>
<path fill-rule="evenodd" clip-rule="evenodd" d="M44.3628 93.6429L48.8752 104.936L53.7926 93.7586L51.6984 81.4595H46.7347L44.3628 93.6429Z" fill="#FF6973"/>
<path d="M49.5578 16.0412C48.5975 16.0528 47.8223 15.2892 47.8107 14.3288C47.7992 13.3685 48.5628 12.5933 49.5231 12.5817L50.0669 12.5702H50.0901V12.5586C55.5859 12.5586 61.0355 14.4677 65.1545 18.1586C69.2851 21.8495 72.0735 27.2991 72.2471 34.3569V34.3801L72.2587 35.0396V35.0627H72.2702C72.2702 40.3156 71.7611 44.4346 70.4537 48.5421C69.1694 52.5685 67.1331 56.5024 64.0785 61.4198C63.6735 62.947 61.6488 71.4743 67.1678 73.7305C68.4636 74.2627 70.2802 74.876 72.3281 75.5702C81.7926 78.7751 96.0008 83.5999 97.2273 93.6429L97.2388 93.7007C98.581 104.808 98.581 118.241 98.581 118.276C98.581 119.236 97.8058 120.011 96.8454 120.011C95.8851 120.011 95.1099 119.236 95.1099 118.276C95.1099 118.241 95.1099 104.993 93.7909 94.1057L93.7793 94.0479C92.819 86.1569 79.8488 81.7603 71.2058 78.833C69.1463 78.1388 67.3182 77.514 65.8372 76.9123C57.3099 73.4181 60.4339 61.5123 60.7694 60.2974C60.8157 60.1123 60.8851 59.9272 60.9892 59.7652C63.9859 54.9751 65.9413 51.2148 67.1331 47.4776C68.3132 43.7636 68.776 39.9569 68.776 35.0396H68.7876L68.776 34.4379V34.4264C68.6256 28.4214 66.2884 23.8164 62.8405 20.7272C59.381 17.6264 54.7645 16.0181 50.0785 16.0181V16.0065L49.5578 16.0181V16.0412Z" fill="#21376D"/>
<path d="M59.2653 111.681C58.305 111.681 57.5298 110.906 57.5298 109.945C57.5298 108.985 58.305 108.21 59.2653 108.21H71.5066C72.4669 108.21 73.2422 108.985 73.2422 109.945C73.2422 110.906 72.4669 111.681 71.5066 111.681H59.2653Z" fill="#21376D"/>
<path d="M34.343 73.2562C33.9843 72.3537 34.4124 71.3239 35.2917 70.9653C36.1711 70.595 37.1777 71.0347 37.5364 71.9372L42.1182 83.3917L48.9562 100.469L61.5446 71.8099C61.9264 70.919 62.9562 70.5256 63.824 70.919C64.6917 71.3124 65.0851 72.3537 64.6917 73.2446L50.4835 105.583C50.3215 106.012 49.9859 106.382 49.5231 106.567C48.6438 106.937 47.6372 106.497 47.2785 105.595L38.9248 84.7107L34.343 73.2562Z" fill="#21376D"/>
<path d="M50.6107 127.382C50.6107 128.342 49.8355 129.117 48.8752 129.117C47.9149 129.117 47.1397 128.342 47.1397 127.382V104.935C47.1397 103.975 47.9149 103.2 48.8752 103.2C49.8355 103.2 50.6107 103.975 50.6107 104.935V127.382ZM82.3595 124.848C82.3595 125.808 81.5843 126.595 80.6124 126.595C79.6521 126.595 78.8653 125.82 78.8653 124.848V111.704C78.8653 110.744 79.6405 109.957 80.6124 109.957C81.5727 109.957 82.3595 110.732 82.3595 111.704V124.848ZM18.8851 124.848C18.8851 125.808 18.1099 126.595 17.138 126.595C16.1777 126.595 15.3909 125.82 15.3909 124.848V111.704C15.3909 110.744 16.1661 109.957 17.138 109.957C18.0983 109.957 18.8851 110.732 18.8851 111.704V124.848Z" fill="#21376D"/>
<path d="M118.389 79.5041V76.7967C118.389 75.9405 118.736 75.1537 119.315 74.5868C119.882 74.0198 120.669 73.6727 121.536 73.6727H126.442C127.298 73.6727 128.085 74.0198 128.652 74.5868L128.664 74.5983L128.698 74.633C129.242 75.2 129.589 75.9636 129.589 76.8082V79.5041C129.844 79.6314 130.087 79.7587 130.33 79.8975C130.573 80.0363 130.804 80.1868 131.047 80.3487L133.384 78.995C134.136 78.5669 134.993 78.4744 135.756 78.6826C136.531 78.8909 137.226 79.3884 137.654 80.1405L137.712 80.2446L140.107 84.3868C140.535 85.1388 140.627 85.995 140.419 86.7587C140.211 87.5339 139.713 88.2281 138.961 88.6562L138.857 88.714L136.624 89.9983C136.647 90.2876 136.647 90.5653 136.647 90.8429C136.647 91.1206 136.636 91.3983 136.624 91.6876L138.961 93.0413C139.713 93.4694 140.211 94.1752 140.419 94.9388C140.627 95.714 140.535 96.5702 140.107 97.3107L137.654 101.557L137.573 101.684L137.561 101.696C137.121 102.355 136.474 102.807 135.756 103.003C134.993 103.212 134.136 103.131 133.384 102.702L133.257 102.621L131.047 101.349C130.816 101.499 130.573 101.65 130.33 101.8C130.087 101.939 129.844 102.066 129.589 102.193V104.889C129.589 105.757 129.242 106.532 128.675 107.099C128.108 107.666 127.321 108.013 126.454 108.013H121.548C120.692 108.013 119.905 107.666 119.338 107.099L119.326 107.088L119.292 107.053C118.748 106.486 118.412 105.722 118.412 104.878V102.182C118.158 102.055 117.915 101.927 117.672 101.788L117.579 101.731C117.371 101.603 117.163 101.476 116.955 101.337L114.617 102.691C113.877 103.119 113.009 103.212 112.245 103.003C111.47 102.795 110.776 102.298 110.348 101.545L110.325 101.499L107.895 97.2991V97.2876C107.467 96.5471 107.386 95.6909 107.594 94.9157C107.802 94.1405 108.3 93.4463 109.052 93.0182L111.389 91.6644C111.366 91.3752 111.366 91.0975 111.366 90.8198C111.366 90.5421 111.378 90.2529 111.389 89.9752L109.052 88.6215C108.312 88.1934 107.802 87.4876 107.594 86.7239C107.386 85.9487 107.479 85.0925 107.907 84.352L110.29 80.233C110.348 80.1173 110.417 80.0016 110.498 79.9091C110.938 79.2843 111.574 78.8446 112.257 78.6595C112.963 78.4744 113.75 78.5322 114.455 78.8793C114.571 78.9256 114.675 78.995 114.779 79.0644L116.966 80.3256C117.198 80.1752 117.44 80.0248 117.683 79.8744L117.799 79.8049M118.065 26.9289C118.135 26.9752 118.204 27.0215 118.262 27.0793L118.065 26.9289ZM124.001 85.3124C125.528 85.3124 126.905 85.9256 127.9 86.9206L127.993 87.0248C128.941 88.0198 129.52 89.3504 129.52 90.8198C129.52 92.3355 128.907 93.7239 127.912 94.719L127.807 94.8115C126.812 95.7603 125.482 96.3388 124.012 96.3388C122.497 96.3388 121.12 95.7256 120.125 94.7306C119.13 93.7355 118.517 92.3587 118.517 90.8314C118.517 89.3157 119.13 87.9388 120.125 86.9438L120.136 86.9322L120.159 86.9091C121.155 85.9256 122.52 85.3239 124.024 85.3239L124.001 85.3124ZM102.515 45.962C101.659 45.962 100.883 46.3091 100.317 46.8644L100.305 46.876L100.282 46.8991C99.738 47.4545 99.4025 48.2297 99.4025 49.0744C99.4025 49.9306 99.7496 50.7058 100.305 51.2611L100.374 51.3306C100.93 51.8512 101.682 52.1636 102.503 52.1636C103.359 52.1636 104.135 51.8165 104.69 51.2611C105.245 50.7058 105.593 49.919 105.593 49.0744C105.593 48.2182 105.245 47.4429 104.69 46.876C104.135 46.3206 103.348 45.9735 102.503 45.9735L102.515 45.962ZM97.8752 44.4115C99.0669 43.2198 100.71 42.4909 102.515 42.4909C104.331 42.4909 105.974 43.2314 107.166 44.4115C108.358 45.6033 109.087 47.2463 109.087 49.0512C109.087 50.8677 108.346 52.5107 107.166 53.7025C105.974 54.8942 104.331 55.6231 102.515 55.6231C100.768 55.6231 99.1711 54.9289 97.9909 53.8066L97.8752 53.7025C96.6835 52.5107 95.9545 50.8677 95.9545 49.0512C95.9545 47.2578 96.6719 45.6264 97.8405 44.4463L97.8752 44.4115ZM104.262 29.4512L103.822 25.6446H102.515H101.207L100.768 29.5206C100.675 30.2958 100.085 30.8975 99.3446 31.0363C98.2454 31.233 97.181 31.5223 96.1512 31.9041C95.0868 32.2975 94.0917 32.7719 93.1777 33.3157C92.495 33.7206 91.6504 33.6049 91.1066 33.0843L88.2488 30.3653L87.2421 31.2099L86.2355 32.0545L88.457 35.4215C88.8851 36.0694 88.8157 36.9025 88.3529 37.4694C87.6587 38.314 87.0454 39.2165 86.5248 40.1421C86.0041 41.0793 85.5529 42.0628 85.2058 43.0925C84.9512 43.8446 84.2223 44.2958 83.4702 44.2611L79.3281 44.0066L79.0967 45.2909L78.8653 46.5868L82.9611 47.8016C83.7248 48.0215 84.2223 48.7388 84.1992 49.5025C84.2223 50.5206 84.338 51.5504 84.5231 52.5454C84.7198 53.5868 85.0091 54.5934 85.3793 55.5537C85.6686 56.3173 85.3793 57.162 84.7314 57.5901L81.2488 60.1702L81.9083 61.3041L82.5678 62.4496L86.7099 60.6446C87.4388 60.3206 88.2719 60.552 88.7463 61.1421C89.4058 61.8942 90.1231 62.5884 90.8868 63.2132C91.6735 63.8611 92.5066 64.4396 93.3859 64.9372C94.0686 65.3306 94.381 66.1289 94.1959 66.8578L93.1314 71.3008L94.3694 71.752L95.5959 72.2033L97.6669 68.0496C98.0372 67.3206 98.8471 66.962 99.6107 67.1355C100.05 67.2049 100.502 67.2628 100.988 67.2975C101.474 67.3322 101.983 67.3553 102.503 67.3553C103.024 67.3553 103.533 67.3322 104.019 67.2975C104.54 67.2512 105.049 67.1934 105.512 67.1124C106.275 66.9851 107.004 67.3901 107.34 68.0496L109.411 72.2033L110.637 71.752L111.875 71.3008L110.799 66.8347C110.614 66.0595 110.984 65.2727 111.655 64.914C112.512 64.4165 113.345 63.8496 114.108 63.2132C114.883 62.5768 115.612 61.871 116.295 61.0843C116.827 60.471 117.707 60.3206 118.401 60.6793L122.439 62.438L123.098 61.2925L123.758 60.1587L120.217 57.5438C119.581 57.0694 119.361 56.2479 119.627 55.5421C119.998 54.5818 120.287 53.5636 120.483 52.5339C120.68 51.5041 120.796 50.4628 120.819 49.4215C120.831 48.6463 121.351 47.9983 122.057 47.7901L126.153 46.5752L125.921 45.2793L125.69 43.995L121.548 44.2496C120.715 44.2958 119.986 43.752 119.778 42.9768C119.431 41.9934 119.002 41.0446 118.493 40.1306C117.961 39.1702 117.348 38.2793 116.677 37.4578C116.179 36.8562 116.168 36.0231 116.573 35.4099L118.794 32.0429L117.788 31.1983L116.781 30.3537L113.923 33.0727C113.321 33.6512 112.407 33.6975 111.748 33.2463C110.857 32.7256 109.897 32.2744 108.879 31.8925C107.86 31.5107 106.784 31.2215 105.685 31.0248C104.887 30.8859 104.32 30.2264 104.25 29.4512H104.262ZM107.166 24.3487L107.571 27.8777C108.427 28.0859 109.26 28.3405 110.082 28.6413C110.892 28.9421 111.69 29.3008 112.477 29.7058L115.08 27.2413C115.474 26.871 115.971 26.6281 116.492 26.5586L116.596 26.5471C117.105 26.5008 117.626 26.6165 118.088 26.9405C118.158 26.9867 118.227 27.033 118.285 27.0909L120.044 28.5603L121.802 30.0297C122.312 30.4578 122.578 31.0248 122.624 31.6264C122.67 32.1124 122.543 32.6215 122.3 33.0611L122.207 33.2115L120.159 36.3008C120.669 36.995 121.131 37.7124 121.536 38.4529C121.941 39.1818 122.312 39.9339 122.636 40.7206L126.407 40.4892C126.974 40.4545 127.541 40.6165 127.993 40.9289C128.421 41.2297 128.745 41.6463 128.895 42.1785C128.918 42.2595 128.941 42.352 128.964 42.4446L129.358 44.7008L129.751 46.957C129.855 47.5124 129.74 48.033 129.497 48.4727C129.462 48.5421 129.416 48.6231 129.369 48.6925C129.057 49.1438 128.571 49.4909 128.027 49.6529H128.016L124.232 50.7752C124.174 51.6082 124.059 52.4182 123.908 53.2049C123.758 54.0033 123.561 54.7785 123.318 55.5421L126.558 57.9372C126.951 58.238 127.264 58.6429 127.426 59.1058C127.449 59.1752 127.472 59.233 127.495 59.3025C127.645 59.8694 127.588 60.4942 127.264 61.0611L126.118 63.0396L124.973 65.0297C124.637 65.6082 124.128 65.9669 123.55 66.1173C123.029 66.2562 122.462 66.2099 121.953 66.0016H121.941L121.918 65.9901H121.907L118.065 64.3239C117.521 64.8793 116.943 65.4 116.33 65.9091C115.74 66.395 115.115 66.8463 114.467 67.2744L115.439 71.3355L115.462 71.4049C115.566 71.8562 115.555 72.3306 115.416 72.7587L115.404 72.7934C115.381 72.8859 115.346 72.9669 115.312 73.0479C115.057 73.5801 114.617 74.0314 113.993 74.2628L111.84 75.0496L109.781 75.8016L109.7 75.8363C109.075 76.0677 108.45 76.0099 107.907 75.7553C107.49 75.5587 107.12 75.2347 106.865 74.8297C106.819 74.7603 106.773 74.6793 106.726 74.5983L104.806 70.7454L104.308 70.7917C103.718 70.838 103.117 70.8611 102.526 70.8611C101.936 70.8611 101.346 70.838 100.745 70.7917L100.247 70.7454L98.3264 74.5983C98.0835 75.0958 97.6785 75.5008 97.2041 75.7322L97.1578 75.7553C96.6603 75.9868 96.1049 76.0446 95.5264 75.8826L95.376 75.8363L93.224 75.0496L91.0719 74.2628C90.4471 74.0429 89.9959 73.6033 89.7529 73.0595C89.5215 72.562 89.4636 71.9719 89.6025 71.4281L90.5975 67.2975C89.9496 66.8694 89.3248 66.4182 88.7347 65.9322C88.133 65.4347 87.5545 64.9025 87.0107 64.3471L83.1694 66.0132C82.6488 66.2446 82.0587 66.2909 81.538 66.152C80.9479 66.0016 80.4388 65.6429 80.1033 65.0644L78.9578 63.0859L77.8818 61.2231L77.8008 61.0958C77.5 60.5752 77.4306 60.0198 77.5463 59.4876L77.581 59.3487C77.7198 58.8165 78.0669 58.319 78.5182 57.9834L81.7578 55.5884C81.5149 54.8248 81.3182 54.0496 81.1678 53.2512C81.0173 52.4644 80.9016 51.6545 80.8438 50.8215L77.1297 49.7223L77.0488 49.6991C76.505 49.5372 76.0306 49.2016 75.7066 48.7504C75.3826 48.2876 75.2207 47.7322 75.3016 47.1306L75.3132 47.0148L75.7066 44.7586L76.1 42.5025C76.2157 41.8545 76.5744 41.3339 77.0603 40.9983C77.5116 40.6744 78.0785 40.5239 78.6454 40.5587L82.4173 40.7901C82.7413 40.0148 83.1116 39.2512 83.5165 38.5339C83.9446 37.7818 84.4074 37.0529 84.8934 36.3702L82.857 33.281C82.5909 32.876 82.4405 32.4016 82.4405 31.9272C82.4405 31.8578 82.4405 31.7768 82.4405 31.7074C82.4868 31.1867 82.695 30.6777 83.1 30.2727C83.1578 30.2148 83.2041 30.157 83.2735 30.1107L85.0322 28.6413L86.7909 27.1719C87.3 26.7438 87.9016 26.5818 88.4917 26.6281C89.0471 26.6744 89.5793 26.9289 89.9959 27.3223L92.5992 29.7867C93.3859 29.3818 94.1843 29.0231 94.9942 28.7223C95.8041 28.4215 96.6488 28.1669 97.4934 27.9586L97.8983 24.4297C97.9562 23.9438 98.1413 23.4925 98.4421 23.1223C98.4884 23.0529 98.5463 22.995 98.6041 22.9372C99.0207 22.5206 99.5992 22.2545 100.259 22.2545H102.55H104.84C105.5 22.2545 106.067 22.5206 106.495 22.9372C106.865 23.3074 107.108 23.8049 107.189 24.3372L107.201 24.4297L107.166 24.3487ZM125.447 89.3851C125.077 89.0149 124.568 88.7834 124.001 88.7834C123.445 88.7834 122.936 89.0033 122.566 89.362L122.555 89.3735L122.543 89.3851C122.184 89.7553 121.953 90.2644 121.953 90.8314C121.953 91.3983 122.184 91.9074 122.555 92.2777C122.925 92.6479 123.434 92.8677 124.001 92.8677C124.533 92.8677 125.019 92.6711 125.378 92.3355L125.436 92.2661C125.806 91.8958 126.037 91.3867 126.037 90.8198C126.037 90.2876 125.84 89.8016 125.505 89.4429L125.436 89.3851H125.447ZM121.883 77.1206V80.6149C121.883 81.3206 121.455 81.9801 120.761 82.2347C120.31 82.4082 119.893 82.6049 119.5 82.8132L119.419 82.871C119.002 83.114 118.586 83.4033 118.181 83.7272C117.637 84.1669 116.862 84.2595 116.226 83.8892L113.183 82.1306L111.065 85.7983L114.097 87.557C114.698 87.9041 115.057 88.5983 114.941 89.3272C114.907 89.5355 114.872 89.7901 114.849 90.0677C114.826 90.3107 114.814 90.5653 114.814 90.8198C114.814 91.0744 114.826 91.3058 114.837 91.5372V91.5487V91.5603C114.86 91.8148 114.883 92.0578 114.918 92.2545V92.2777C115.045 92.9719 114.733 93.7124 114.085 94.0826L111.054 95.8413L113.171 99.5091L116.145 97.7967C116.758 97.4033 117.579 97.4264 118.169 97.9239C118.528 98.2248 118.921 98.4909 119.315 98.7223L119.407 98.7686C119.801 99 120.217 99.1967 120.657 99.3702C121.363 99.5901 121.883 100.25 121.883 101.025V104.519H126.118V101.025C126.118 100.319 126.546 99.6595 127.24 99.4049C127.703 99.2314 128.166 99.0115 128.583 98.7686C128.999 98.5256 129.427 98.2363 129.821 97.9124C130.364 97.4727 131.14 97.3801 131.776 97.7504L134.807 99.5091L136.925 95.8413L133.893 94.0942C133.292 93.7471 132.933 93.0529 133.049 92.3239C133.083 92.1157 133.118 91.8611 133.141 91.5719C133.164 91.3405 133.164 91.0859 133.164 90.8198C133.164 90.5653 133.153 90.3223 133.141 90.1025V90.0909V90.0793C133.118 89.8016 133.083 89.5471 133.049 89.3272C132.933 88.633 133.257 87.9157 133.893 87.557L136.925 85.8099L134.807 82.1421L131.776 83.8892C131.163 84.2363 130.388 84.2016 129.809 83.7272C129.427 83.4149 129.011 83.1256 128.571 82.871C128.178 82.6396 127.761 82.443 127.321 82.2694C126.616 82.0496 126.095 81.3901 126.095 80.6149V77.1206H121.86H121.883Z" fill="#21376D"/>
</g>
<defs>
<clipPath id="clip0_92_76">
<rect width="140" height="140" fill="white" transform="translate(0.5 0.84375)"/>
</clipPath>
</defs>
</svg>
