<svg width="141" height="141" viewBox="0 0 141 141" fill="none" xmlns="http://www.w3.org/2000/svg">
<g clip-path="url(#clip0_92_98)">
<path d="M135.939 130.179C136.886 130.179 137.671 130.964 137.671 131.911C137.671 132.858 136.886 133.643 135.939 133.643H12.2614C11.314 133.643 10.529 132.858 10.529 131.911V131.857V2.57616C10.529 1.62875 11.314 0.84375 12.2614 0.84375C13.2088 0.84375 13.9938 1.62875 13.9938 2.57616V130.179H135.939Z" fill="#BAC1D2"/>
<path d="M6.30627 11.0757C5.62955 11.7525 4.5468 11.7525 3.87008 11.1028C3.19336 10.4261 3.19336 9.34333 3.84301 8.66661L11.0433 1.35802C11.72 0.681301 12.8028 0.681301 13.4795 1.33095L13.5066 1.35802L13.5337 1.38509L20.7069 8.66661C21.3836 9.34333 21.3565 10.4531 20.6798 11.1028C20.0031 11.7795 18.8933 11.7525 18.2436 11.0757L12.2885 5.03938L6.33334 11.0757H6.30627ZM127.412 125.956C126.736 125.279 126.736 124.196 127.385 123.52C128.062 122.843 129.145 122.843 129.821 123.493L137.103 130.693C137.78 131.37 137.78 132.452 137.13 133.129L137.103 133.156L137.076 133.183L129.794 140.356C129.118 141.033 128.008 141.006 127.358 140.329C126.681 139.653 126.708 138.543 127.385 137.893L133.422 131.938L127.385 125.983L127.412 125.956Z" fill="#BAC1D2"/>
<path d="M24.1446 87.0309C23.5491 87.7618 22.4393 87.8701 21.7084 87.2746C20.9776 86.6791 20.8693 85.5692 21.4648 84.8384L36.7046 66.2691C37.2459 65.6195 38.1663 65.4571 38.8701 65.8631L50.0766 72.0077L65.966 50.082C66.5344 49.297 67.6172 49.1346 68.3751 49.703L81.5306 57.6883L111.631 13.7015C112.172 12.9165 113.255 12.6999 114.04 13.2413C114.825 13.7827 115.042 14.8654 114.5 15.6504L83.4795 60.9637C82.9652 61.7216 81.9366 61.9381 81.1516 61.478L67.8337 53.3844L51.9985 75.256C51.4842 75.9598 50.5367 76.1763 49.7517 75.7703L38.464 69.5715L24.1176 87.0309H24.1446Z" fill="#F6C3BF"/>
<path d="M101.21 21.4972C100.316 21.8491 99.3148 21.4431 98.9629 20.5498C98.611 19.6565 99.017 18.655 99.9103 18.3031L112.497 13.1059C113.391 12.754 114.392 13.16 114.744 14.0533C114.825 14.2428 114.852 14.4323 114.879 14.6217L115.61 27.8043C115.664 28.7517 114.933 29.5637 113.986 29.6179C113.039 29.672 112.227 28.9412 112.172 27.9937L111.577 17.2474L101.264 21.5243L101.21 21.4972Z" fill="#F6C3BF"/>
<path d="M41.9559 99.4014H42.0101H58.0348C58.9822 99.4014 59.7672 100.186 59.7672 101.134V101.188V131.938C59.7672 132.885 58.9822 133.67 58.0348 133.67H57.9807H41.9559C41.0085 133.67 40.2235 132.885 40.2235 131.938V131.884V101.134C40.2235 100.186 41.0085 99.4014 41.9559 99.4014ZM56.2753 102.866H43.6883V130.179H56.2753V102.866ZM70.297 77.5027H70.3511H86.3759C87.3233 77.5027 88.1083 78.2877 88.1083 79.2351V79.2892V131.911C88.1083 132.858 87.3233 133.643 86.3759 133.643H86.3217H70.297C69.3496 133.643 68.5646 132.858 68.5646 131.911V131.857V79.2351C68.5646 78.2877 69.3496 77.5027 70.297 77.5027ZM84.6164 80.9675H72.0294V130.152H84.6164V80.9675ZM98.5568 60.2057H98.611H114.636C115.583 60.2057 116.368 60.9907 116.368 61.9381V61.9922V131.911C116.368 132.858 115.583 133.643 114.636 133.643H114.582H98.5568C97.6094 133.643 96.8244 132.858 96.8244 131.911V131.857V61.9381C96.8244 60.9907 97.6094 60.2057 98.5568 60.2057ZM112.876 63.6705H100.289V130.179H112.876V63.6705Z" fill="#BAC1D2"/>
<path fill-rule="evenodd" clip-rule="evenodd" d="M103.348 66.621H109.817V127.201H103.348V66.621Z" fill="#BAC1D2"/>
<path fill-rule="evenodd" clip-rule="evenodd" d="M75.3859 84.5405H81.2599V126.605H75.3859V84.5405Z" fill="#BAC1D2"/>
<path fill-rule="evenodd" clip-rule="evenodd" d="M47.0449 106.439H52.8917V127.039H47.0449V106.439Z" fill="#BAC1D2"/>
</g>
<defs>
<clipPath id="clip0_92_98">
<rect width="140" height="140" fill="white" transform="translate(0.5 0.84375)"/>
</clipPath>
</defs>
</svg>
