<svg width="141" height="141" viewBox="0 0 141 141" fill="none" xmlns="http://www.w3.org/2000/svg">
<g clip-path="url(#clip0_92_89)">
<path d="M19.938 85.4917L120.854 85.5611C121.409 85.5611 121.895 85.8157 122.219 86.2206L139.123 107.811C140.026 108.968 140.5 111.085 140.5 113.156H140.512C140.512 114.29 140.373 115.447 140.095 116.454V116.465C139.759 117.645 139.204 118.652 138.417 119.277C137.85 119.716 137.202 119.971 136.45 119.971V119.959L4.66529 119.878V119.89C3.92479 119.89 3.27686 119.647 2.70992 119.207C1.88843 118.583 1.30992 117.541 0.962809 116.35L0.928099 116.222C0.650413 115.216 0.52314 114.082 0.52314 112.994H0.53471C0.53471 111.039 0.97438 109.049 1.84215 107.926L18.4802 86.1859C18.8388 85.7115 19.4058 85.4801 19.9612 85.5033L19.938 85.4917ZM120.009 89.0206L20.6901 88.9512L4.57273 110.021C4.17934 110.541 3.97107 111.721 3.97107 112.994H3.98264C3.98264 113.816 4.07521 114.614 4.24876 115.285L4.28347 115.401C4.42231 115.887 4.5843 116.257 4.75785 116.431L136.323 116.512C136.474 116.35 136.624 115.991 136.751 115.54C136.936 114.857 137.04 114.024 137.04 113.168H137.052C137.052 111.791 136.832 110.495 136.404 109.951L120.021 89.0322L120.009 89.0206Z" fill="#BAC1D2"/>
<path d="M3.19587 110.692C2.24711 110.692 1.4719 109.916 1.4719 108.968C1.4719 108.019 2.24711 107.244 3.19587 107.244L137.758 107.151C138.707 107.151 139.482 107.926 139.482 108.875C139.482 109.824 138.707 110.599 137.758 110.599L3.19587 110.692ZM21.5694 85.4801H119.072V28.4272C119.072 27.5479 118.702 26.7379 118.123 26.1479C117.545 25.5693 116.735 25.1991 115.844 25.1991H24.7859C23.895 25.1991 23.0967 25.5693 22.5066 26.1479C21.9281 26.7264 21.5579 27.5363 21.5579 28.4272V85.4801H21.5694ZM120.807 88.9512H19.8802H19.8339C18.8736 88.9512 18.0983 88.176 18.0983 87.2156V28.4272C18.0983 26.5875 18.8504 24.9098 20.0653 23.695C21.2802 22.4801 22.9579 21.728 24.7975 21.728H115.855C117.695 21.728 119.373 22.4801 120.588 23.695C121.802 24.9098 122.555 26.5875 122.555 28.4272V87.1693V87.2156C122.555 88.176 121.779 88.9512 120.819 88.9512H120.807Z" fill="#BAC1D2"/>
<path d="M27.1579 28.057H27.2041H114.317C115.277 28.057 116.052 28.8322 116.052 29.7925V29.8388V80.2735C116.052 81.2339 115.277 82.0091 114.317 82.0091H114.27H27.1579C26.1975 82.0091 25.4223 81.2339 25.4223 80.2735V80.2273V29.7925C25.4223 28.8322 26.1975 28.057 27.1579 28.057ZM112.581 31.5281H28.8934V78.538H112.581V31.5281ZM60.6421 94.8405H80.543C81.3298 94.8405 82.0008 95.3611 82.2091 96.0901L84.4769 102.257C84.8124 103.159 84.3496 104.166 83.4471 104.49C83.2504 104.559 83.0421 104.594 82.8455 104.594H58.1314C57.1711 104.594 56.3843 103.807 56.3843 102.847C56.3843 102.558 56.4537 102.292 56.5694 102.06L59.0107 95.9397C59.2769 95.257 59.9364 94.8405 60.619 94.8405V94.8289L60.6421 94.8405ZM79.3281 98.3231H61.8107L60.7 101.112H80.3463L79.3281 98.3231Z" fill="#BAC1D2"/>
<path d="M82.4636 63.2074C81.7926 63.8784 80.6818 63.8784 80.0107 63.2074C79.3397 62.5363 79.3397 61.4256 80.0107 60.7545L95.2719 45.5049C95.943 44.8338 97.0537 44.8338 97.7248 45.5049C98.3959 46.176 98.3959 47.2867 97.7248 47.9578L82.4636 63.2074ZM62.5744 49.647C61.9033 48.976 61.9033 47.8652 62.5744 47.1941C63.2455 46.5231 64.3562 46.5231 65.0273 47.1941L78.5876 60.7545C79.2587 61.4256 79.2587 62.5363 78.5876 63.2074C77.9165 63.8784 76.8058 63.8784 76.1347 63.2074L62.5744 49.647ZM46.2025 64.5727C45.5314 65.2437 44.4207 65.2437 43.7496 64.5727C43.0785 63.9016 43.0785 62.7908 43.7496 62.1198L58.6868 47.1826C59.3578 46.5115 60.4686 46.5115 61.1397 47.1826C61.8107 47.8537 61.8107 48.9644 61.1397 49.6355L46.2025 64.5727Z" fill="#BAC1D2"/>
<path d="M61.857 41.9992C63.0835 41.9992 64.2058 42.4967 65.0157 43.3066L65.0273 43.3182L65.0504 43.3413C65.8488 44.1512 66.3347 45.262 66.3347 46.4769C66.3347 47.7149 65.8372 48.8372 65.0273 49.6471L64.9116 49.7512C64.1132 50.4917 63.0372 50.9545 61.857 50.9545C60.619 50.9545 59.5083 50.457 58.6983 49.6471C57.8884 48.8372 57.3909 47.7149 57.3909 46.4769C57.3909 45.2388 57.8884 44.1281 58.6983 43.3182L58.7099 43.3066L58.7331 43.2835C59.543 42.4851 60.6537 41.9992 61.8686 41.9992H61.857ZM62.5628 45.7595C62.3777 45.5859 62.1231 45.4702 61.8455 45.4702C61.5678 45.4702 61.3132 45.5859 61.1281 45.7595L61.1165 45.7711C60.943 45.9562 60.8273 46.2107 60.8273 46.4884C60.8273 46.7661 60.943 47.0207 61.1281 47.2058C61.3132 47.3793 61.5678 47.495 61.8455 47.495C62.1 47.495 62.3314 47.4025 62.505 47.2521L62.5512 47.1942C62.7364 47.0091 62.8521 46.7545 62.8521 46.4769C62.8521 46.1992 62.7364 45.9446 62.5628 45.7595ZM79.2934 59.4355C80.5314 59.4355 81.6537 59.9331 82.4636 60.743C83.2736 61.5529 83.7826 62.6752 83.7826 63.9132C83.7826 65.1512 83.2851 66.2735 82.4636 67.0835C81.6537 67.8934 80.5314 68.3909 79.2934 68.3909C78.0669 68.3909 76.9446 67.8934 76.1347 67.0835L76.1231 67.0719L76.1 67.0488C75.3017 66.2388 74.8157 65.1281 74.8157 63.9132C74.8157 62.6752 75.3132 61.5645 76.1231 60.7545L76.1347 60.743L76.1579 60.7198C76.9678 59.9215 78.0785 59.4355 79.2934 59.4355ZM80.0107 63.2074C79.8256 63.0223 79.5711 62.9066 79.2934 62.9066C79.0157 62.9066 78.7612 63.0223 78.576 63.1959L78.5645 63.2074C78.3909 63.3926 78.2752 63.6471 78.2752 63.9248C78.2752 64.2025 78.3909 64.457 78.5645 64.6421L78.576 64.6537C78.7612 64.8273 79.0157 64.943 79.2934 64.943C79.5711 64.943 79.8256 64.8273 80.0107 64.6421C80.1959 64.457 80.3116 64.2025 80.3116 63.9248C80.3116 63.6471 80.1959 63.3926 80.0107 63.2074ZM43.0438 60.8124C44.2818 60.8124 45.4041 61.3099 46.2141 62.1198L46.3182 62.2355C47.0587 63.0339 47.5215 64.1099 47.5215 65.2901C47.5215 66.5165 47.024 67.6388 46.2141 68.4488C45.4041 69.2587 44.2818 69.7562 43.0438 69.7562C41.8058 69.7562 40.695 69.2587 39.8851 68.4488L39.8736 68.4372L39.8504 68.414C39.0521 67.6041 38.5661 66.4934 38.5661 65.2785C38.5661 64.0405 39.0636 62.9297 39.8736 62.1198L39.8851 62.1083L39.9083 62.0851C40.7182 61.2868 41.8289 60.8008 43.0438 60.8008V60.8124ZM43.7612 64.5843C43.576 64.3992 43.3215 64.2835 43.0438 64.2835C42.7661 64.2835 42.5116 64.3992 42.3264 64.5727L42.3149 64.5843C42.1413 64.7694 42.0256 65.024 42.0256 65.3016C42.0256 65.5793 42.1413 65.8339 42.3149 66.019L42.3264 66.0306C42.5116 66.2041 42.7661 66.3198 43.0438 66.3198C43.3215 66.3198 43.576 66.2041 43.7612 66.019C43.9347 65.8339 44.0504 65.5793 44.0504 65.3016C44.0504 65.0471 43.9579 64.8157 43.8074 64.6421L43.7496 64.5959L43.7612 64.5843ZM98.4306 40.2983C99.6686 40.2983 100.779 40.7959 101.589 41.6058L101.601 41.6173L101.624 41.6405C102.422 42.4504 102.908 43.5611 102.908 44.776C102.908 46.0025 102.411 47.1248 101.601 47.9347L101.589 47.9463L101.566 47.9694C100.756 48.7678 99.6455 49.2537 98.4306 49.2537C97.8405 49.2537 97.2736 49.138 96.7529 48.9297C96.2207 48.7099 95.7231 48.3859 95.3182 47.9926L95.2719 47.9463L95.2488 47.9231L95.2372 47.9116C94.8438 47.5066 94.5314 47.0322 94.3116 46.5116L94.2769 46.4074C94.0802 45.8983 93.976 45.3545 93.976 44.7876C93.976 43.5496 94.4736 42.4388 95.2835 41.6289L95.295 41.6173L95.3182 41.5942C96.1281 40.7959 97.2388 40.3099 98.4537 40.3099L98.4306 40.2983ZM99.1364 44.0587C98.9512 43.8851 98.6967 43.7694 98.419 43.7694C98.1413 43.7694 97.8868 43.8851 97.7017 44.0587L97.6901 44.0702C97.5165 44.2554 97.4008 44.5099 97.4008 44.7876C97.4008 44.9149 97.424 45.0306 97.4587 45.1347L97.4818 45.181C97.5281 45.2967 97.5975 45.4008 97.6785 45.4934L97.6901 45.505L97.7248 45.5397C97.8058 45.6091 97.9099 45.6785 98.0256 45.7248C98.1413 45.7711 98.2686 45.7942 98.4074 45.7942C98.6851 45.7942 98.9397 45.6785 99.1248 45.505L99.1364 45.4934C99.3099 45.3083 99.4256 45.0537 99.4256 44.776C99.4256 44.4983 99.3099 44.2438 99.1364 44.0587Z" fill="#F6C3BF"/>
</g>
<defs>
<clipPath id="clip0_92_89">
<rect width="140" height="140" fill="white" transform="translate(0.5 0.84375)"/>
</clipPath>
</defs>
</svg>
