<svg width="140" height="141" viewBox="0 0 140 141" fill="none" xmlns="http://www.w3.org/2000/svg">
<g clip-path="url(#clip0_92_111)">
<path d="M51.4253 37.5066C54.2642 37.5066 56.8598 38.6422 58.7254 40.5078C60.591 42.3733 61.7265 44.9689 61.7265 47.8079C61.7265 50.6468 60.591 53.2424 58.7254 55.108L58.6443 55.1891C56.7787 57.0547 54.1831 58.1091 51.4253 58.1091C48.5863 58.1091 45.9907 56.9736 44.1252 55.108C42.2596 53.2424 41.124 50.6468 41.124 47.8079C41.124 44.9689 42.2596 42.3733 44.1252 40.5078C45.9907 38.6422 48.5863 37.5066 51.4253 37.5066ZM56.4542 42.86C55.1564 41.5622 53.372 40.7511 51.4253 40.7511C49.4786 40.7511 47.6941 41.5622 46.3963 42.86C45.0985 44.1578 44.2874 45.9423 44.2874 47.889C44.2874 49.8357 45.0985 51.6201 46.3152 52.8368C47.613 54.1346 49.3975 54.9458 51.3442 54.9458C53.2909 54.9458 54.9942 54.2157 56.292 52.9179L56.3731 52.8368C57.6709 51.539 58.482 49.7546 58.482 47.8079C58.482 45.8612 57.6709 44.0767 56.4542 42.86Z" fill="#F6C3BF"/>
<path d="M56.0487 12.3618L55.0753 4.0883H51.3442H47.613L46.6396 12.3618C46.5585 13.0918 45.9907 13.6596 45.2607 13.8218C43.2329 14.1462 41.2051 14.714 39.2584 15.444C37.3117 16.1741 35.365 17.0663 33.6616 18.1207C33.0128 18.5263 32.2016 18.3641 31.6338 17.8774L25.5504 12.1184L22.7115 14.4707L19.8725 16.823L24.6582 24.042C25.0637 24.6909 24.9826 25.4209 24.5771 25.9887C23.2793 27.6109 22.1437 29.2331 21.1703 31.0176C20.197 32.8021 19.3859 34.5866 18.6559 36.6144C18.4125 37.3444 17.6825 37.8311 16.8714 37.75L8.19236 37.1822L7.54346 40.8322L6.89456 44.4823L15.5736 47.0779C16.3036 47.3212 16.7903 47.9701 16.7092 48.7001C16.7903 50.6468 16.9525 52.5935 17.3581 54.5402C17.7636 56.4869 18.2503 58.3525 18.9803 60.2181C19.2236 60.9481 18.9803 61.7592 18.3314 62.1648L10.9502 67.5993L12.8158 70.7627L14.6813 73.9261L23.3604 70.1138C24.0904 69.7893 24.8204 70.0327 25.3071 70.6005C26.5238 72.0605 27.9027 73.3583 29.3627 74.575C30.8227 75.7917 32.445 76.8461 34.0672 77.8195C34.7161 78.225 35.0406 78.955 34.8783 79.604L32.6072 88.9319L36.095 90.2297L39.5829 91.5275L43.8818 82.8484C44.2063 82.1184 45.0174 81.794 45.7474 81.9562C46.6396 82.1184 47.5319 82.1995 48.4241 82.2807C49.3163 82.3618 50.2897 82.3618 51.263 82.3618C52.2364 82.3618 53.2097 82.3618 54.102 82.2807C55.0753 82.1995 56.0487 82.1184 56.9409 81.9562C57.6709 81.8751 58.3198 82.1995 58.6443 82.8484L62.9432 91.5275L66.4311 90.2297L69.9189 88.9319L67.6477 79.604C67.4855 78.8739 67.81 78.1439 68.4589 77.8195C70.0811 76.8461 71.7034 75.7917 73.1634 74.575C74.6234 73.3583 76.0023 71.9794 77.3001 70.6005C77.7868 70.0327 78.5168 69.8705 79.1657 70.1949L87.8447 74.0072L89.7103 70.8438L91.5759 67.6804L84.1136 62.1648C83.5458 61.7592 83.3024 60.9481 83.5458 60.2992C84.2758 58.5147 84.7625 56.568 85.168 54.6213C85.5736 52.6746 85.7358 50.7279 85.8169 48.7001C85.8169 47.9701 86.3036 47.3212 86.9525 47.159L95.6315 44.5634L94.9826 40.9133L94.3337 37.2633L85.5736 37.8311C84.8436 37.9122 84.1947 37.4255 83.9513 36.6955C83.3024 34.7488 82.4102 32.8832 81.4369 31.0987L81.3557 31.0176C80.3824 29.2331 79.2468 27.6109 77.949 26.0698C77.4623 25.502 77.4623 24.6909 77.8679 24.1231L82.6535 16.9041L79.8146 14.5518L76.9757 12.1995L70.8111 18.0396C70.2433 18.5263 69.4322 18.6074 68.8644 18.283C67.08 17.2285 65.2144 16.3363 63.2677 15.6063H63.1866C61.321 14.8763 59.2932 14.3896 57.2654 13.984C56.5353 13.8218 55.9676 13.254 55.8864 12.524L56.0487 12.3618ZM58.3198 3.4394L59.1309 10.8206C60.9154 11.2262 62.6999 11.7129 64.4033 12.3618H64.4844C66.2688 13.0107 67.8911 13.8218 69.5944 14.714L75.029 9.52283C75.5156 9.03616 76.1646 8.71171 76.8134 8.71171C77.5435 8.6306 78.1924 8.87394 78.7601 9.36061L81.9235 12.0373L85.0869 14.714C85.6547 15.2007 85.9791 15.8496 86.0603 16.5796C86.1414 17.2285 85.9791 17.8774 85.6547 18.3641L85.5736 18.4452L81.2746 24.8531C82.3291 26.232 83.3836 27.7731 84.1947 29.3143L84.2758 29.3954C85.168 30.9365 85.898 32.6399 86.5469 34.3432L94.4148 33.8566C95.0637 33.8566 95.7937 34.0188 96.3615 34.4243C96.8482 34.7488 97.2538 35.3166 97.416 35.9655C97.416 36.0466 97.416 36.1277 97.4971 36.2088L98.2271 40.2644L98.9571 44.3201C99.1194 45.0501 98.876 45.7801 98.4705 46.3479C98.0649 46.9156 97.4971 47.3212 96.8482 47.4834L88.9803 49.8357C88.8992 51.6202 88.6559 53.4046 88.3314 55.108C88.007 56.8114 87.5203 58.5147 86.9525 60.137L93.6848 65.0848C94.2526 65.4904 94.6582 66.0582 94.8204 66.7071C94.9826 67.356 94.9015 68.0049 94.6582 68.6538L94.5771 68.816L92.4681 72.3849L90.4403 75.9539C90.0348 76.6028 89.467 77.0084 88.8181 77.2517C88.2503 77.4139 87.5203 77.3328 86.9525 77.0895H86.8714L79.0035 73.6827C77.8679 74.8994 76.6512 76.1161 75.2723 77.1706C73.9745 78.225 72.5956 79.1984 71.1356 80.0906L73.1634 88.6074C73.3256 89.2563 73.2445 89.9052 73.0012 90.473L72.9201 90.6352C72.5956 91.2841 72.1089 91.7708 71.3789 92.0141L67.4855 93.3931L63.5921 94.772C62.9432 95.0153 62.2132 95.0153 61.6454 94.6909L61.5643 94.6097C60.9965 94.3664 60.5099 93.8797 60.2665 93.3931L60.1854 93.2308L56.2109 85.3629C55.562 85.444 54.9131 85.5252 54.3453 85.5252C53.2909 85.6063 52.3175 85.6874 51.263 85.6874C50.2086 85.6874 49.2352 85.6063 48.1808 85.5252C47.5319 85.444 46.9641 85.444 46.3152 85.2818L42.4218 93.1497C42.0973 93.7175 41.6918 94.2042 41.124 94.4475C41.0429 94.4475 41.0429 94.5286 40.9618 94.5286C40.3129 94.8531 39.5829 94.8531 38.8528 94.6097L34.9594 93.2308L31.0661 91.8519C30.4172 91.6086 29.9305 91.1219 29.606 90.5541L29.5249 90.3919C29.2816 89.8241 29.2005 89.0941 29.3627 88.4452L31.3905 79.9284C29.9305 79.0362 28.5516 78.0628 27.2538 77.0084C25.956 75.9539 24.7393 74.7372 23.5226 73.5205L15.6547 76.9272C15.0869 77.1706 14.438 77.2517 13.7891 77.0895H13.6269C12.978 76.9272 12.3291 76.5217 12.0046 75.7917L9.97683 72.2227L7.94902 68.7349L7.86791 68.6538C7.46235 68.0049 7.38123 67.2749 7.62457 66.626C7.7868 65.9771 8.19236 65.4093 8.76014 65.0037L15.4925 60.0559C14.9247 58.4336 14.5191 56.7303 14.1136 55.0269C13.7891 53.3235 13.5458 51.6202 13.4647 49.7546L5.67787 47.4834H5.59676C4.94786 47.3212 4.38007 46.9156 3.97451 46.3479C3.56895 45.7801 3.40673 45.0501 3.48784 44.3201L4.21785 40.2644L4.94786 36.2088C5.11009 35.4788 5.51565 34.8299 6.08343 34.4243C6.65122 34.0188 7.30012 33.8566 7.94902 33.8566L15.8169 34.3432C16.4658 32.6399 17.1958 31.0176 18.0881 29.3954C18.9803 27.7731 20.0348 26.232 21.0892 24.8531L16.8714 18.5263L16.7903 18.4452C16.3847 17.8774 16.2225 17.1474 16.3036 16.4985C16.3847 15.7685 16.7092 15.1196 17.2769 14.6329L20.4403 11.9562L23.6037 9.2795C24.1715 8.79282 24.9015 8.6306 25.5504 8.6306C26.1993 8.71171 26.8482 8.95505 27.3349 9.44172L32.7694 14.6329C34.3917 13.7407 36.095 12.9296 37.8795 12.2807C39.5829 11.6318 41.3673 11.1451 43.2329 10.7395L44.044 3.35829C44.1251 2.70939 44.3685 2.06049 44.8552 1.57382C45.3418 1.08714 45.9907 0.762695 46.8019 0.762695H50.9386H55.0753C55.8053 0.762695 56.4542 1.08714 56.9409 1.57382C57.4276 2.06049 57.6709 2.62828 57.752 3.27718V3.35829L58.3198 3.4394Z" fill="#BAC1D2"/>
<path d="M51.4253 25.4208C57.5898 25.4208 63.1866 27.9353 67.2422 31.9909C71.2978 36.0465 73.8123 41.6433 73.8123 47.8078C73.8123 53.9723 71.2978 59.5691 67.2422 63.6247C63.1866 67.6803 57.5898 70.1948 51.4253 70.1948C45.2607 70.1948 39.664 67.6803 35.6083 63.6247C31.5527 59.5691 29.0382 53.9723 29.0382 47.8078C29.0382 41.6433 31.5527 36.0465 35.6083 31.9909C39.664 27.9353 45.2607 25.4208 51.4253 25.4208ZM62.2132 37.0198C59.4554 34.262 55.6431 32.5587 51.4253 32.5587C47.2074 32.5587 43.3951 34.262 40.6373 37.0198C37.8795 39.7777 36.1761 43.59 36.1761 47.8078C36.1761 52.0256 37.8795 55.8379 40.6373 58.5957C43.3951 61.3536 47.2074 63.0569 51.4253 63.0569C55.6431 63.0569 59.4554 61.3536 62.2132 58.5957C64.971 55.8379 66.6744 52.0256 66.6744 47.8078C66.6744 43.59 64.971 39.7777 62.2132 37.0198Z" fill="#BAC1D2"/>
<path d="M105.527 96.6375C107.474 96.6375 109.177 97.4486 110.475 98.6653L110.556 98.7464C111.773 99.9631 112.503 101.666 112.503 103.532C112.503 105.479 111.692 107.182 110.475 108.48C109.177 109.778 107.474 110.508 105.527 110.508C103.581 110.508 101.877 109.697 100.579 108.48C99.2816 107.182 98.5516 105.479 98.5516 103.532C98.5516 101.585 99.3627 99.882 100.579 98.5842C101.877 97.2864 103.581 96.5564 105.527 96.5564V96.6375ZM108.123 101.018C107.474 100.369 106.582 99.9631 105.527 99.9631C104.554 99.9631 103.581 100.369 102.932 101.018C102.283 101.666 101.877 102.559 101.877 103.613C101.877 104.587 102.283 105.56 102.932 106.209C103.581 106.858 104.473 107.263 105.527 107.263C106.501 107.263 107.474 106.858 108.123 106.209C108.772 105.56 109.177 104.668 109.177 103.613C109.177 102.64 108.772 101.748 108.204 101.099L108.123 101.018Z" fill="#F6C3BF"/>
<path d="M112.26 82.7673C113.395 83.0917 114.531 83.5784 115.585 84.1462C116.64 84.714 117.694 85.2818 118.667 86.0118L123.94 82.1995C124.67 81.7128 125.562 81.4695 126.373 81.6317H126.454C127.265 81.7939 127.995 82.1995 128.563 82.9295L132.538 88.4452C133.024 89.1752 133.268 90.0674 133.105 90.8785V90.9596C132.943 91.7708 132.538 92.5008 131.808 93.0686L126.535 96.8808C126.86 97.7731 127.103 98.7464 127.265 99.6387V99.7198C127.428 100.693 127.59 101.748 127.59 102.721L133.917 104.424C134.809 104.668 135.458 105.235 135.863 105.965C136.269 106.695 136.431 107.588 136.188 108.48L134.403 115.05C134.16 115.942 133.592 116.591 132.862 116.997C132.132 117.402 131.24 117.565 130.348 117.321L124.021 115.618C123.453 116.429 122.885 117.24 122.236 118.051C121.587 118.781 120.857 119.511 120.127 120.16L122.885 126.325C123.534 127.947 122.804 129.731 121.182 130.461L115.017 133.219C114.206 133.625 113.314 133.544 112.503 133.3L112.422 133.219C111.692 132.895 111.043 132.327 110.718 131.516L108.042 125.514L107.474 125.595C106.825 125.676 106.257 125.676 105.608 125.676C104.797 125.676 103.986 125.595 103.175 125.514C102.769 125.432 102.445 125.432 102.039 125.351L99.0382 131.191V131.272C98.6327 132.084 97.9027 132.57 97.1727 132.814C96.3615 133.057 95.4693 133.057 94.6582 132.651L88.6559 129.569L88.4936 129.488C87.7636 129.082 87.2769 128.434 86.9525 127.622C86.7092 126.811 86.7092 125.919 87.1147 125.108L90.1159 119.268C89.3859 118.538 88.737 117.808 88.0881 116.997C87.5203 116.186 86.9525 115.374 86.4658 114.482L80.0579 115.861C79.1657 116.023 78.2735 115.861 77.6246 115.374C76.8946 114.888 76.4079 114.158 76.2457 113.347L74.8667 106.695C74.7045 105.803 74.8667 104.911 75.3534 104.262C75.8401 103.532 76.5701 103.045 77.3812 102.883H77.4623L83.7891 101.504C83.8702 100.531 84.0324 99.4764 84.2758 98.5031C84.5191 97.5297 84.8436 96.5564 85.168 95.6642L80.2202 91.6085C80.139 91.5274 80.0579 91.4463 79.9768 91.3652C79.3279 90.7974 79.0035 90.0674 78.9224 89.2563C78.8412 88.4452 79.0035 87.634 79.5713 86.9851C79.6524 86.904 79.6524 86.8229 79.7335 86.7418L83.9513 81.5506C84.5191 80.8206 85.3302 80.415 86.1414 80.3339C86.9525 80.2528 87.8447 80.4961 88.4936 81.0639L93.5226 85.1195C94.3337 84.5518 95.226 84.0651 96.1182 83.6595C97.0104 83.254 97.9027 82.8484 98.876 82.5239V75.9538C98.876 75.0616 99.2816 74.2505 99.8494 73.6827C100.417 73.1149 101.228 72.7094 102.202 72.7094H109.015C109.907 72.7094 110.718 73.1149 111.286 73.6827C111.854 74.2505 112.26 75.0616 112.26 76.035V82.6051V82.7673ZM114.044 87.0662C112.827 86.4985 111.611 86.0118 110.313 85.6062C109.583 85.444 109.015 84.7951 109.015 83.984V76.1972H102.283V83.984C102.283 84.714 101.796 85.3629 101.066 85.6062C99.8494 85.9307 98.7138 86.3362 97.6593 86.8229C96.6049 87.3096 95.5504 87.9585 94.5771 88.6885C94.0093 89.0941 93.1981 89.0941 92.5492 88.6074L86.5469 83.7406L82.3291 89.0129L88.3314 93.8797C88.9803 94.3664 89.2236 95.1775 88.8181 95.9075C88.3314 97.0431 87.9258 98.1786 87.6014 99.3142C87.3581 100.45 87.1958 101.666 87.1147 102.883C87.1147 103.613 86.628 104.343 85.8169 104.505L78.3546 106.128H78.2735V106.209L79.6524 112.698L87.2769 111.076C88.007 110.913 88.737 111.238 89.0614 111.968C89.6292 113.022 90.2781 114.077 91.0081 115.05C91.7381 116.023 92.5492 116.916 93.5226 117.727C94.0904 118.213 94.2526 119.025 93.9282 119.673L90.4403 126.568V126.649H90.5214L96.4426 129.65H96.5238V129.569L100.012 122.675C100.336 122.026 101.066 121.62 101.796 121.782C102.445 121.945 103.094 122.026 103.824 122.107C104.473 122.188 105.203 122.188 105.933 122.188C106.501 122.188 106.987 122.188 107.474 122.107C108.042 122.026 108.528 122.026 109.015 121.945C109.745 121.782 110.475 122.188 110.8 122.918L113.963 130.056L120.046 127.379H120.127L116.964 120.241C116.64 119.592 116.883 118.781 117.451 118.295C118.424 117.565 119.316 116.672 120.046 115.78C120.857 114.888 121.506 113.914 122.074 112.86C122.399 112.211 123.21 111.887 123.94 112.049L131.483 114.077L133.268 107.588L125.724 105.56C124.994 105.398 124.508 104.749 124.508 103.938V103.857V103.694C124.508 102.478 124.426 101.342 124.183 100.206V100.125C123.94 98.9898 123.615 97.8542 123.21 96.8808C122.885 96.1508 123.048 95.3397 123.696 94.853L129.942 90.3107L125.968 84.8762L119.641 89.4185C119.073 89.8241 118.181 89.8241 117.613 89.3374C116.559 88.4452 115.423 87.7151 114.125 87.0662H114.044Z" fill="#BAC1D2"/>
<path fill-rule="evenodd" clip-rule="evenodd" d="M105.527 91.0408C112.422 91.0408 118.019 96.6375 118.019 103.532C118.019 110.427 112.422 116.023 105.527 116.023C98.6327 116.023 93.0359 110.427 93.0359 103.532C93.0359 96.6375 98.6327 91.0408 105.527 91.0408ZM105.527 94.123C110.718 94.123 114.936 98.3409 114.936 103.532C114.936 108.723 110.718 112.941 105.527 112.941C100.336 112.941 96.1182 108.723 96.1182 103.532C96.1182 98.3409 100.336 94.123 105.527 94.123Z" fill="#BAC1D2"/>
<path d="M50.4519 113.428C52.2364 113.428 53.7775 114.158 54.9942 115.293C56.1298 116.429 56.8598 118.051 56.8598 119.755C56.8598 121.539 56.1298 123.08 54.9942 124.297C53.8586 125.432 52.2364 126.162 50.533 126.162C48.7486 126.162 47.2074 125.432 45.9907 124.297C44.8552 123.161 44.1252 121.539 44.1252 119.836C44.1252 118.051 44.8552 116.51 45.9907 115.293C47.1263 114.158 48.7486 113.428 50.4519 113.428ZM52.642 117.646C52.0742 117.078 51.3442 116.753 50.4519 116.753C49.6408 116.753 48.8297 117.078 48.2619 117.646C47.6941 118.213 47.3696 118.943 47.3696 119.836C47.3696 120.647 47.6941 121.458 48.2619 122.026C48.8297 122.593 49.5597 122.918 50.4519 122.918C51.263 122.918 52.0742 122.593 52.642 122.026C53.2097 121.458 53.5342 120.728 53.5342 119.836C53.5342 119.024 53.2097 118.213 52.642 117.646Z" fill="#F6C3BF"/>
<path d="M53.6153 106.939V102.153V102.072C53.6153 102.072 53.6153 102.072 53.5342 102.072H47.3696H47.2885V102.153V106.939C47.2885 107.669 46.8019 108.318 46.153 108.48C45.5852 108.723 45.0174 108.967 44.5307 109.291C43.9629 109.616 43.3951 110.021 42.9085 110.427C42.3407 110.913 41.6107 110.913 40.9618 110.508L36.825 108.155H36.7439C36.7439 108.155 36.6628 108.155 36.6628 108.237L33.5805 113.59V113.671C33.5805 113.671 33.5805 113.752 33.6616 113.752L37.7984 116.186C38.4473 116.51 38.6906 117.24 38.6095 117.889C38.5284 118.213 38.5284 118.457 38.5284 118.862C38.5284 119.187 38.5284 119.511 38.5284 119.836C38.5284 120.16 38.5284 120.485 38.5284 120.809C38.5284 121.215 38.6095 121.539 38.6095 121.782C38.6906 122.512 38.3662 123.161 37.7173 123.486L33.6616 125.838L33.5805 125.919V126L36.6628 131.354C36.6628 131.354 36.7439 131.354 36.7439 131.435H36.825L36.9061 131.354L40.9618 129.001C41.5295 128.677 42.3407 128.758 42.8273 129.164C43.314 129.569 43.8818 129.975 44.4496 130.299C45.0174 130.624 45.5852 130.867 46.2341 131.11C46.883 131.354 47.2885 132.003 47.2885 132.651V137.437V137.518C47.2885 137.518 47.2885 137.518 47.3696 137.518H53.5342H53.6153V137.437V132.651C53.6153 131.921 54.102 131.273 54.7509 131.11C55.3187 130.867 55.8864 130.624 56.4542 130.299C57.022 129.975 57.5898 129.569 58.0765 129.164C58.6443 128.677 59.3743 128.677 60.0232 129.082L64.1599 131.435H64.241C64.241 131.435 64.3221 131.435 64.3221 131.354L67.4044 126V125.919C67.4044 125.919 67.4044 125.838 67.3233 125.838L63.1866 123.405C62.5377 123.08 62.2943 122.35 62.3754 121.701C62.4565 121.377 62.4565 121.133 62.4565 120.728C62.4565 120.403 62.4565 120.079 62.4565 119.755C62.4565 119.43 62.4565 119.106 62.4565 118.781C62.4565 118.457 62.3754 118.051 62.3754 117.808C62.2943 117.078 62.6188 116.429 63.2677 116.105L67.3233 113.752L67.4044 113.671V113.59L64.3221 108.237C64.3221 108.237 64.3221 108.237 64.241 108.155H64.1599L64.0788 108.237L60.0232 110.589C59.4554 110.913 58.6443 110.832 58.1576 110.427C57.6709 110.021 57.1031 109.616 56.5353 109.291C55.9676 108.967 55.3998 108.723 54.7509 108.48C54.102 108.237 53.6964 107.588 53.6964 106.939H53.6153ZM56.9409 102.153V105.884C57.3465 106.047 57.752 106.29 58.1576 106.533C58.5632 106.777 58.9687 107.02 59.2932 107.263L62.3754 105.479C62.4565 105.398 62.5377 105.398 62.6999 105.317C63.511 104.911 64.3221 104.83 65.1333 105.073C65.9444 105.317 66.6744 105.803 67.08 106.533C67.1611 106.614 67.1611 106.695 67.2422 106.777L70.2433 111.968C70.73 112.779 70.8111 113.671 70.5678 114.563C70.3244 115.375 69.7567 116.186 69.0266 116.591L65.7822 118.457V118.538C65.7822 118.943 65.8633 119.349 65.8633 119.755C65.8633 120.16 65.8633 120.566 65.7822 120.971V121.052L69.0266 122.918C69.8378 123.405 70.4056 124.135 70.5678 124.946C70.8111 125.757 70.73 126.649 70.3244 127.379L70.2433 127.541L67.1611 132.895C66.6744 133.706 65.9444 134.274 65.1333 134.517C64.3221 134.76 63.3488 134.679 62.5377 134.193L59.2932 132.327C58.8876 132.57 58.5632 132.814 58.1576 133.057C57.752 133.3 57.3465 133.463 56.9409 133.706V137.437C56.9409 138.41 56.5353 139.222 55.9676 139.87C55.3187 140.519 54.5075 140.844 53.5342 140.844H47.3696C46.4774 140.844 45.6663 140.519 45.0985 139.952L44.9363 139.87C44.2874 139.222 43.9629 138.41 43.9629 137.437V133.706C43.5574 133.544 43.1518 133.3 42.7462 133.057C42.3407 132.814 41.9351 132.57 41.6107 132.327L38.5284 134.111C38.4473 134.193 38.3662 134.193 38.2039 134.274C37.3928 134.679 36.5817 134.76 35.7706 134.517C34.9594 134.274 34.2294 133.787 33.8239 133.057C33.7428 132.976 33.7428 132.895 33.6616 132.814L30.6605 127.622C30.1738 126.811 30.0927 125.919 30.336 125.027C30.5794 124.216 31.1472 123.405 31.8772 122.999L35.1217 121.133V121.052C35.1217 120.647 35.0406 120.241 35.0406 119.836C35.0406 119.43 35.0406 119.025 35.1217 118.619V118.538L31.8772 116.672C31.066 116.186 30.4983 115.456 30.336 114.644C30.0927 113.833 30.1738 113.022 30.5794 112.211L30.6605 112.049L33.7428 106.695C34.2294 105.884 34.9594 105.317 35.7706 105.073C36.5817 104.83 37.555 104.911 38.3662 105.398L41.6107 107.263C42.0162 107.02 42.3407 106.777 42.7462 106.533C43.1518 106.29 43.5574 106.128 43.9629 105.884V102.153C43.9629 101.18 44.3685 100.369 44.9363 99.7198C45.5852 99.0709 46.3963 98.7465 47.3696 98.7465H53.5342C54.4264 98.7465 55.2375 99.0709 55.8053 99.6387L55.9676 99.7198C56.6165 100.369 56.9409 101.18 56.9409 102.153ZM36.9061 131.354C37.1495 131.273 37.3928 131.191 37.6362 131.191L36.9061 131.354ZM64.0788 108.318C63.8355 108.399 63.5921 108.48 63.3488 108.48L64.0788 108.318Z" fill="#BAC1D2"/>
<path fill-rule="evenodd" clip-rule="evenodd" d="M50.4519 109.859C55.8865 109.859 60.3476 114.32 60.3476 119.754C60.3476 125.189 55.8865 129.65 50.4519 129.65C45.0174 129.65 40.5562 125.189 40.5562 119.754C40.5562 114.32 45.0174 109.859 50.4519 109.859ZM50.4519 111.724C54.832 111.724 58.4821 115.293 58.4821 119.754C58.4821 124.135 54.9131 127.785 50.4519 127.785C46.0719 127.785 42.4218 124.216 42.4218 119.754C42.4218 115.374 45.9907 111.724 50.4519 111.724Z" fill="#BAC1D2"/>
</g>
<defs>
<clipPath id="clip0_92_111">
<rect width="140" height="140" fill="white" transform="translate(0 0.84375)"/>
</clipPath>
</defs>
</svg>
