<svg width="141" height="141" viewBox="0 0 141 141" fill="none" xmlns="http://www.w3.org/2000/svg">
<g clip-path="url(#clip0_92_168)">
<path fill-rule="evenodd" clip-rule="evenodd" d="M37.8852 50.2685L39.7098 35.3469H42.127L44.4396 50.3498L41.1275 53.5805L37.8852 50.2685Z" fill="#F6C3BF"/>
<path d="M93.9573 95.1494C107.878 95.1494 119.164 83.8641 119.164 69.9431C119.164 56.0221 107.878 44.7368 93.9573 44.7368C80.0362 44.7368 68.751 56.0221 68.751 69.9431C68.751 83.8641 80.0362 95.1494 93.9573 95.1494Z" fill="#E9EBF0"/>
<path d="M103.893 63.9582C103.893 64.9111 103.115 65.6898 102.162 65.6898C101.209 65.6898 100.43 64.9111 100.43 63.9582C100.43 62.6566 99.64 61.1807 98.3849 60.0303C97.2345 58.9727 95.6888 58.2522 94.0154 58.229H93.9689H93.9224C92.063 58.2406 90.4826 58.7171 89.4018 59.5305L89.3088 59.6003C88.4256 60.2975 87.9027 61.2505 87.9027 62.3312C87.9027 66.6543 91.1217 67.4329 94.3059 68.1999C98.722 69.2691 103.08 70.3266 103.08 76.939C103.08 79.1238 102.08 81.297 100.302 82.8542C99.1055 83.9001 97.5482 84.6787 95.7121 84.9809V89.362C95.7121 90.315 94.9335 91.0936 93.9805 91.0936C93.0276 91.0936 92.249 90.315 92.249 89.362V84.9692C90.3431 84.6206 88.6232 83.7258 87.2751 82.5637C85.2995 80.8554 84.0561 78.4963 84.0561 76.3115C84.0561 75.3586 84.8347 74.5799 85.7876 74.5799C86.7406 74.5799 87.5192 75.3586 87.5192 76.3115C87.5192 77.5085 88.2978 78.8798 89.5296 79.9489C90.6917 80.9483 92.2374 81.6456 93.934 81.6572H93.9805H94.027C95.7121 81.6456 97.0718 81.0994 98.0247 80.2627C99.0357 79.3679 99.6168 78.1593 99.6168 76.9507C99.6168 73.0459 96.5837 72.3138 93.5041 71.5701C89.0067 70.4777 84.4396 69.3737 84.4396 62.3312C84.4396 60.1116 85.4739 58.2057 87.217 56.8577L87.3449 56.7531C88.6464 55.7885 90.3199 55.1261 92.249 54.8705V50.5242C92.249 49.5712 93.0276 48.7926 93.9805 48.7926C94.9335 48.7926 95.7121 49.5712 95.7121 50.5242V54.9286C97.6412 55.2888 99.3611 56.2301 100.721 57.4736C102.685 59.2516 103.905 61.7037 103.905 63.9582H103.893ZM22.0107 53.1389C22.0572 52.186 22.8707 51.4422 23.8236 51.4887C24.7766 51.5352 25.5203 52.3487 25.4738 53.3016L23.6842 89.6061L57.5482 89.4666L55.6075 53.3016C55.561 52.3487 56.2931 51.5352 57.2461 51.4887C58.199 51.4422 59.0125 52.1744 59.059 53.1273L61.1043 91.1052V91.1866C61.1043 92.1395 60.3373 92.9181 59.3844 92.9181L21.9759 93.0692C21.9178 93.0692 21.8597 93.0692 21.7899 93.0692C20.837 93.0227 20.0933 92.2092 20.1397 91.2563L22.0224 53.1273L22.0107 53.1389Z" fill="#BAC1D2"/>
<path d="M49.2275 33.9175L53.1089 39.5189C53.4808 40.0651 53.5041 40.7392 53.2252 41.297L43.0218 61.1343C42.5802 61.9826 41.5343 62.3196 40.6859 61.878C40.3838 61.7153 40.1397 61.4829 39.977 61.204L27.6586 41.297C27.2868 40.7043 27.3332 39.9722 27.6935 39.426L32.0979 32.9298C32.6325 32.1395 33.7132 31.9303 34.5035 32.4649C34.8754 32.7206 35.1194 33.0924 35.224 33.4992L41.3135 53.3597L46.0665 34.4056C46.299 33.4759 47.2403 32.9181 48.17 33.1506C48.6232 33.2668 48.9951 33.5457 49.2159 33.9175H49.2275ZM49.6691 40.6346L48.507 38.9495L46.5662 46.6543L49.6691 40.623V40.6346ZM31.2031 40.4486L36.2234 48.5602L32.9463 37.8687L31.2031 40.4486Z" fill="#BAC1D2"/>
<path d="M67.4843 49.4201C66.9033 50.1755 65.8109 50.315 65.0555 49.7339C64.3001 49.1528 64.1607 48.0605 64.7417 47.3051C68.1816 42.8658 72.6209 39.2284 77.7225 36.7414C82.6383 34.3359 88.1467 32.9762 93.9689 32.9762C104.172 32.9762 113.411 37.1133 120.105 43.8071L120.117 43.8187L120.14 43.842C126.81 50.5358 130.936 59.7629 130.936 69.9431C130.936 80.1465 126.799 89.3853 120.105 96.079L120.093 96.0907L120.07 96.1139C113.376 102.784 104.149 106.91 93.9689 106.91C88.3791 106.91 83.0683 105.666 78.3036 103.424C73.3646 101.111 69.0183 97.7292 65.5668 93.5921C64.9625 92.86 65.0555 91.7676 65.7876 91.1633C66.5198 90.559 67.6121 90.652 68.2164 91.3841C71.3425 95.1377 75.2937 98.2057 79.7679 100.298C84.0677 102.308 88.8789 103.435 93.9689 103.435C103.219 103.435 111.598 99.6816 117.653 93.627C123.707 87.5607 127.461 79.1935 127.461 69.9431C127.461 60.6926 123.707 52.3138 117.653 46.2592C111.587 40.2046 103.219 36.4509 93.9689 36.4509C88.6813 36.4509 83.6726 37.6711 79.2449 39.8443C74.6313 42.1104 70.6104 45.3992 67.4843 49.4201Z" fill="#F6C3BF"/>
<path d="M33.2949 27.0262C32.7254 26.2592 32.8881 25.1785 33.6551 24.609C34.4221 24.0396 35.5029 24.2023 36.0723 24.9693C36.6185 25.7014 37.1647 26.3057 37.6993 26.7822C38.629 27.6073 39.5471 28.0373 40.4187 28.0721H40.4303C41.3019 28.107 42.2199 27.77 43.1845 27.0495C43.7307 26.6427 44.2885 26.1198 44.8463 25.4922C45.4739 24.7717 46.5662 24.702 47.2868 25.3295C48.0073 25.9571 48.077 27.0495 47.4494 27.77C46.7289 28.5951 45.9852 29.2807 45.2414 29.8385C43.6261 31.0355 41.9759 31.605 40.3024 31.5352H40.256C38.5709 31.4539 36.9439 30.745 35.4099 29.3853C34.6778 28.7462 33.9689 27.9559 33.2833 27.0378L33.2949 27.0262Z" fill="#BAC1D2"/>
<path d="M62.4524 94.6729C61.5227 94.8937 60.593 94.3243 60.3605 93.3946C60.1397 92.4649 60.7092 91.5352 61.6389 91.3028L68.507 89.6177L64.9858 48.1999V48.0837C64.9044 47.3632 64.3582 43.8303 61.0346 42.2499C59.303 41.4248 57.5482 40.9367 55.8748 40.4718C52.342 39.4957 49.0648 38.5892 46.2176 35.1145C45.4041 34.1267 44.9044 32.5811 44.6371 31.0471C44.3001 29.1064 44.3466 26.9797 44.6488 26.1081C44.9277 25.2946 45.4506 24.5857 45.9852 23.842C46.4035 23.2725 46.8335 22.6682 47.0543 22.1453C47.0892 22.0639 47.1241 21.9942 47.1705 21.9129L47.217 21.8199L47.2751 21.7269C48.0421 20.3324 52.0747 12.8135 48.1119 7.73505C46.7987 6.06161 45.0439 5.00408 43.1845 4.55086C41.511 4.14412 39.7446 4.20222 38.1409 4.71356C36.5604 5.21326 35.131 6.15458 34.1084 7.50263C33.0508 8.88555 32.3884 10.7449 32.3884 13.0227C32.3884 15.3702 32.7254 17.5665 33.353 19.5421C33.9922 21.5758 34.9218 23.3887 36.0956 24.9111C36.2699 25.1435 36.3861 25.3992 36.421 25.6781C36.7347 26.9797 37.8388 32.953 32.6673 36.6485C32.5395 36.7414 32.4001 36.8112 32.249 36.8693C31.3774 37.2179 30.378 37.5665 29.2391 37.95C24.5209 39.5421 17.4436 41.9477 16.9672 45.9338C16.0259 53.6502 15.4448 63.6677 14.887 73.3365C14.5151 79.7048 14.1548 85.9105 13.7016 91.2911L20.6162 91.9187C21.5691 92 22.2664 92.8484 22.1851 93.8013C22.1037 94.7542 21.2554 95.4515 20.3024 95.3702L11.6679 94.5799C10.715 94.4986 10.0177 93.6502 10.0991 92.6973C10.6104 87.1308 11.0171 80.2278 11.4239 73.1389C11.9933 63.3771 12.5744 53.2551 13.5273 45.5154C14.2827 39.3446 22.5918 36.5323 28.1351 34.6496C29.1926 34.2894 30.1339 33.9756 30.8196 33.7083C33.934 31.3492 33.353 27.7002 33.1438 26.7356C31.8306 24.9576 30.7731 22.8774 30.0526 20.5648C29.3205 18.2522 28.9253 15.7072 28.9253 13.0111C28.9253 9.90821 29.8666 7.35156 31.3658 5.38758C32.8417 3.45847 34.8637 2.11042 37.095 1.40153H37.1066C39.303 0.704258 41.7202 0.611289 44.0096 1.1691C46.6011 1.79665 49.0299 3.26091 50.8544 5.58514C56.2234 12.4649 51.2379 21.7269 50.3199 23.3771L50.2966 23.4236L50.2501 23.505C49.8783 24.3765 49.3321 25.1319 48.8207 25.8408C48.4372 26.3754 48.0654 26.8867 47.9492 27.2237C47.7981 27.6537 47.8329 29.0134 48.0886 30.4428C48.2629 31.4771 48.5535 32.4416 48.9253 32.8948C51.0869 35.5212 53.8527 36.2882 56.8393 37.1133C58.6755 37.6247 60.5813 38.1476 62.5569 39.0889C67.647 41.5061 68.3791 46.8518 68.4721 47.7467L68.4954 47.8861L72.1444 90.7682C72.2141 91.6049 71.6679 92.3835 70.8312 92.5927L62.5105 94.6264L62.4524 94.6729Z" fill="#BAC1D2"/>
<path d="M39.7562 60.3557C39.7562 59.4028 40.5232 58.6241 41.4762 58.6241C42.4291 58.6241 43.2077 59.3911 43.2077 60.3441L43.3472 91.268C43.3472 92.2209 42.5802 92.9995 41.6273 92.9995C40.6743 92.9995 39.8957 92.2325 39.8957 91.2796L39.7562 60.3557Z" fill="#BAC1D2"/>
<path d="M39.5936 93.7433V93.6968L39.6284 93.5108L39.6517 93.4062L39.6981 93.2668L39.7098 93.2435C39.8027 93.046 39.9189 92.8601 40.07 92.709L40.0816 92.6974C40.2327 92.5463 40.4187 92.4184 40.6162 92.3371L40.6395 92.3255L40.7789 92.279L40.8835 92.2558L41.0694 92.2209H41.1159L41.2089 92.2093H41.3019H41.3948L41.4878 92.2209H41.5343L41.7202 92.2558L41.8248 92.279L41.9643 92.3255L41.9875 92.3371C42.1851 92.4301 42.371 92.5463 42.5221 92.6974L42.5337 92.709C42.6848 92.8601 42.8126 93.046 42.894 93.2435L42.9056 93.2668L42.9521 93.4062L42.9753 93.5108L43.0102 93.6968V93.7433L43.0218 93.8362L45.2879 137.241L56.0491 137.357L56.0375 91.1982C56.0375 90.2453 56.8161 89.4667 57.769 89.4667C58.722 89.4667 59.5006 90.2453 59.5006 91.1982L59.5122 139.077V139.112V139.124C59.5006 140.077 58.722 140.844 57.769 140.844L43.7074 140.693C42.7661 140.728 41.9643 139.995 41.9178 139.054L41.2902 127.108L40.6627 139.054C40.6162 139.995 39.8144 140.728 38.873 140.693L24.8114 140.844C23.8585 140.855 23.0799 140.077 23.0683 139.124V139.112V139.077L23.0799 91.1982C23.0799 90.2453 23.8585 89.4667 24.8114 89.4667C25.7644 89.4667 26.543 90.2453 26.543 91.1982L26.5314 137.357L37.2926 137.241L39.5587 93.8362L39.5703 93.7433H39.5936Z" fill="#BAC1D2"/>
</g>
<defs>
<clipPath id="clip0_92_168">
<rect width="140" height="140" fill="white" transform="translate(0.5 0.84375)"/>
</clipPath>
</defs>
</svg>
